<?xml version="1.0" standalone="no"?><!DOCTYPE svg PUBLIC "-//W3C//DTD SVG 1.1//EN" "http://www.w3.org/Graphics/SVG/1.1/DTD/svg11.dtd"><svg t="1603962663999" class="icon" viewBox="0 0 1024 1024" version="1.1" xmlns="http://www.w3.org/2000/svg" p-id="3044" xmlns:xlink="http://www.w3.org/1999/xlink" width="200" height="200"><defs><style type="text/css"></style></defs><path d="M821.248 444.416c-2.048 8.192-9.216 14.336-17.408 15.36-94.208 10.24-169.984 40.96-226.304 89.088l201.728 201.728c8.192 8.192 8.192 20.48 0 28.672-4.096 4.096-9.216 6.144-14.336 6.144s-10.24-2.048-14.336-6.144L548.864 577.536c-48.128 55.296-78.848 131.072-89.088 226.304-1.024 8.192-7.168 15.36-15.36 17.408-2.048 0-3.072 1.024-5.12 1.024-7.168 0-13.312-3.072-17.408-9.216-59.392-91.136-105.472-184.32-136.192-276.48s-47.104-185.344-48.128-277.504c0-5.12 2.048-11.264 6.144-14.336 4.096-4.096 9.216-6.144 14.336-6.144 92.16 1.024 185.344 17.408 277.504 48.128s184.32 76.8 276.48 136.192c8.192 4.096 11.264 13.312 9.216 21.504z" p-id="3045"></path></svg>