<?xml version="1.0" encoding="utf-8"?>
<svg version="1.1" xmlns:xlink="http://www.w3.org/1999/xlink" width="36px" height="29px" xmlns="http://www.w3.org/2000/svg">
  <g transform="matrix(1 0 0 1 -59 -298 )">
    <path d="M 35.2840909090909 11.1221590909091  C 35.7613636363636 11.5066287878788  36 11.9734848484848  36 12.5227272727273  L 36 16.4772727272727  C 36 17.0265151515152  35.7613636363636 17.4933712121212  35.2840909090909 17.8778409090909  C 34.8068181818182 18.2623106060606  34.2272727272727 18.4545454545455  33.5454545454545 18  L 22.9090909090909 18  L 22.9090909090909 27.0227272727273  C 22.9090909090909 27.5719696969697  22.6704545454545 28.0388257575758  22.1931818181818 28.4232954545455  C 21.7159090909091 28.8077651515152  21.1363636363636 29  20.4545454545455 29  L 15.5454545454545 29  C 14.8636363636364 29  14.2840909090909 28.8077651515152  13.8068181818182 28.4232954545455  C 13.3295454545455 28.0388257575758  13.0909090909091 27.5719696969697  13.0909090909091 27.0227272727273  L 13.0909090909091 18  L 2.45454545454545 18  C 1.77272727272727 18.4545454545455  1.19318181818182 18.2623106060606  0.715909090909091 17.8778409090909  C 0.238636363636364 17.4933712121212  0 17.0265151515152  0 16.4772727272727  L 0 12.5227272727273  C 0 11.9734848484848  0.238636363636364 11.5066287878788  0.715909090909091 11.1221590909091  C 1.19318181818182 10.7376893939394  1.77272727272727 10.5454545454545  2.45454545454545 11  L 13.0909090909091 11  L 13.0909090909091 1.97727272727273  C 13.0909090909091 1.4280303030303  13.3295454545455 0.961174242424241  13.8068181818182 0.576704545454546  C 14.2840909090909 0.192234848484848  14.8636363636364 0  15.5454545454545 0  L 20.4545454545455 0  C 21.1363636363636 0  21.7159090909091 0.192234848484848  22.1931818181818 0.576704545454546  C 22.6704545454545 0.961174242424241  22.9090909090909 1.4280303030303  22.9090909090909 1.97727272727273  L 22.9090909090909 11  L 33.5454545454545 11  C 34.2272727272727 10.5454545454545  34.8068181818182 10.7376893939394  35.2840909090909 11.1221590909091  Z " fill-rule="nonzero" fill="#000000" stroke="none" transform="matrix(1 0 0 1 59 298 )" />
  </g>
</svg>