<?xml version="1.0" encoding="utf-8"?>
<svg version="1.1" xmlns:xlink="http://www.w3.org/1999/xlink" width="36px" height="14px" xmlns="http://www.w3.org/2000/svg">
  <g transform="matrix(1 0 0 1 -115 -305 )">
    <path d="M 35.2840909090909 1.02083333333333  C 35.7613636363636 1.70138888888888  36 2.52777777777778  36 3.5  L 36 10.5  C 36 11.4722222222222  35.7613636363636 12.2986111111111  35.2840909090909 12.9791666666667  C 34.8068181818182 13.6597222222222  34.2272727272727 14  33.5454545454545 14  L 2.45454545454545 14  C 1.77272727272727 14  1.19318181818182 13.6597222222222  0.715909090909091 12.9791666666667  C 0.238636363636364 12.2986111111111  0 11.4722222222222  0 10.5  L 0 3.5  C 0 2.52777777777778  0.238636363636364 1.70138888888888  0.715909090909091 1.02083333333333  C 1.19318181818182 0.340277777777775  1.77272727272727 0  2.45454545454545 0  L 33.5454545454545 0  C 34.2272727272727 0  34.8068181818182 0.340277777777775  35.2840909090909 1.02083333333333  Z " fill-rule="nonzero" fill="#000000" stroke="none" transform="matrix(1 0 0 1 115 305 )" />
  </g>
</svg>