<?xml version="1.0" encoding="utf-8"?>
<svg version="1.1" xmlns:xlink="http://www.w3.org/1999/xlink" width="22px" height="22px" viewBox="486 100.5  22 22" xmlns="http://www.w3.org/2000/svg">
  <defs>
    <filter x="486px" y="100.5px" width="22px" height="22px" filterUnits="userSpaceOnUse" id="filter66">
      <feOffset dx="5" dy="5" in="SourceAlpha" result="shadowOffsetInner" />
      <feGaussianBlur stdDeviation="2.5" in="shadowOffsetInner" result="shadowGaussian" />
      <feComposite in2="shadowGaussian" operator="atop" in="SourceAlpha" result="shadowComposite" />
      <feColorMatrix type="matrix" values="0 0 0 0 0  0 0 0 0 0  0 0 0 0 0  0 0 0 0.349019607843137 0  " in="shadowComposite" />
    </filter>
    <g id="widget67">
      <path d="M 492 100.5  C 495.36 100.5  498 103.14  498 106.5  C 498 109.86  495.36 112.5  492 112.5  C 488.64 112.5  486 109.86  486 106.5  C 486 103.14  488.64 100.5  492 100.5  Z " fill-rule="nonzero" fill="#b3f6f9" stroke="none" />
      <path d="M 492 101  C 495.08 101  497.5 103.42  497.5 106.5  C 497.5 109.58  495.08 112  492 112  C 488.92 112  486.5 109.58  486.5 106.5  C 486.5 103.42  488.92 101  492 101  Z " stroke-width="1" stroke="#797979" fill="none" />
    </g>
  </defs>
  <use xlink:href="#widget67" filter="url(#filter66)" />
  <use xlink:href="#widget67" />
  <path d="M 492 109.5  C 490.32 109.5  489 108.18  489 106.5  C 489 104.82  490.32 103.5  492 103.5  C 493.68 103.5  495 104.82  495 106.5  C 495 108.18  493.68 109.5  492 109.5  " fill-rule="nonzero" fill="#797979" stroke="none" />
</svg>