<?xml version="1.0" encoding="utf-8"?>
<svg version="1.1" xmlns:xlink="http://www.w3.org/1999/xlink" width="22px" height="22px" viewBox="617 99.5  22 22" xmlns="http://www.w3.org/2000/svg">
  <defs>
    <filter x="617px" y="99.5px" width="22px" height="22px" filterUnits="userSpaceOnUse" id="filter74">
      <feOffset dx="5" dy="5" in="SourceAlpha" result="shadowOffsetInner" />
      <feGaussianBlur stdDeviation="2.5" in="shadowOffsetInner" result="shadowGaussian" />
      <feComposite in2="shadowGaussian" operator="atop" in="SourceAlpha" result="shadowComposite" />
      <feColorMatrix type="matrix" values="0 0 0 0 0  0 0 0 0 0  0 0 0 0 0  0 0 0 0.349019607843137 0  " in="shadowComposite" />
    </filter>
    <g id="widget75">
      <path d="M 623 99.5  C 626.36 99.5  629 102.14  629 105.5  C 629 108.86  626.36 111.5  623 111.5  C 619.64 111.5  617 108.86  617 105.5  C 617 102.14  619.64 99.5  623 99.5  Z " fill-rule="nonzero" fill="#b3f6f9" stroke="none" />
      <path d="M 623 100  C 626.08 100  628.5 102.42  628.5 105.5  C 628.5 108.58  626.08 111  623 111  C 619.92 111  617.5 108.58  617.5 105.5  C 617.5 102.42  619.92 100  623 100  Z " stroke-width="1" stroke="#797979" fill="none" />
    </g>
  </defs>
  <use xlink:href="#widget75" filter="url(#filter74)" />
  <use xlink:href="#widget75" />
  <path d="M 623 108.5  C 621.32 108.5  620 107.18  620 105.5  C 620 103.82  621.32 102.5  623 102.5  C 624.68 102.5  626 103.82  626 105.5  C 626 107.18  624.68 108.5  623 108.5  " fill-rule="nonzero" fill="#797979" stroke="none" />
</svg>