<?xml version="1.0" encoding="utf-8"?>
<svg version="1.1" xmlns:xlink="http://www.w3.org/1999/xlink" width="12px" height="12px" viewBox="688 10.5  12 12" xmlns="http://www.w3.org/2000/svg">
  <path d="M 694 10.5  C 697.36 10.5  700 13.14  700 16.5  C 700 19.86  697.36 22.5  694 22.5  C 690.64 22.5  688 19.86  688 16.5  C 688 13.14  690.64 10.5  694 10.5  Z " fill-rule="nonzero" fill="#f0f0f0" stroke="none" />
  <path d="M 694 11  C 697.08 11  699.5 13.42  699.5 16.5  C 699.5 19.58  697.08 22  694 22  C 690.92 22  688.5 19.58  688.5 16.5  C 688.5 13.42  690.92 11  694 11  Z " stroke-width="1" stroke="#797979" fill="none" />
  <path d="M 694 19.5  C 692.32 19.5  691 18.18  691 16.5  C 691 14.82  692.32 13.5  694 13.5  C 695.68 13.5  697 14.82  697 16.5  C 697 18.18  695.68 19.5  694 19.5  " fill-rule="nonzero" fill="#797979" stroke="none" />
</svg>