<?xml version="1.0" encoding="utf-8"?>
<svg version="1.1" xmlns:xlink="http://www.w3.org/1999/xlink" width="12px" height="12px" viewBox="688 35.5  12 12" xmlns="http://www.w3.org/2000/svg">
  <path d="M 694 35.5  C 697.36 35.5  700 38.14  700 41.5  C 700 44.86  697.36 47.5  694 47.5  C 690.64 47.5  688 44.86  688 41.5  C 688 38.14  690.64 35.5  694 35.5  Z " fill-rule="nonzero" fill="#f0f0f0" stroke="none" />
  <path d="M 694 36  C 697.08 36  699.5 38.42  699.5 41.5  C 699.5 44.58  697.08 47  694 47  C 690.92 47  688.5 44.58  688.5 41.5  C 688.5 38.42  690.92 36  694 36  Z " stroke-width="1" stroke="#797979" fill="none" />
  <path d="M 694 44.5  C 692.32 44.5  691 43.18  691 41.5  C 691 39.82  692.32 38.5  694 38.5  C 695.68 38.5  697 39.82  697 41.5  C 697 43.18  695.68 44.5  694 44.5  " fill-rule="nonzero" fill="#797979" stroke="none" />
</svg>