<?xml version="1.0" encoding="utf-8"?>
<svg version="1.1" xmlns:xlink="http://www.w3.org/1999/xlink" width="22px" height="22px" viewBox="497 108.5  22 22" xmlns="http://www.w3.org/2000/svg">
  <defs>
    <filter x="497px" y="108.5px" width="22px" height="22px" filterUnits="userSpaceOnUse" id="filter84">
      <feOffset dx="5" dy="5" in="SourceAlpha" result="shadowOffsetInner" />
      <feGaussianBlur stdDeviation="2.5" in="shadowOffsetInner" result="shadowGaussian" />
      <feComposite in2="shadowGaussian" operator="atop" in="SourceAlpha" result="shadowComposite" />
      <feColorMatrix type="matrix" values="0 0 0 0 0  0 0 0 0 0  0 0 0 0 0  0 0 0 0.349019607843137 0  " in="shadowComposite" />
    </filter>
    <g id="widget85">
      <path d="M 503 108.5  C 506.36 108.5  509 111.14  509 114.5  C 509 117.86  506.36 120.5  503 120.5  C 499.64 120.5  497 117.86  497 114.5  C 497 111.14  499.64 108.5  503 108.5  Z " fill-rule="nonzero" fill="#b3f6f9" stroke="none" />
      <path d="M 503 109  C 506.08 109  508.5 111.42  508.5 114.5  C 508.5 117.58  506.08 120  503 120  C 499.92 120  497.5 117.58  497.5 114.5  C 497.5 111.42  499.92 109  503 109  Z " stroke-width="1" stroke="#797979" fill="none" />
    </g>
  </defs>
  <use xlink:href="#widget85" filter="url(#filter84)" />
  <use xlink:href="#widget85" />
  <path d="M 503 117.5  C 501.32 117.5  500 116.18  500 114.5  C 500 112.82  501.32 111.5  503 111.5  C 504.68 111.5  506 112.82  506 114.5  C 506 116.18  504.68 117.5  503 117.5  " fill-rule="nonzero" fill="#797979" stroke="none" />
</svg>