<?xml version="1.0" encoding="utf-8"?>
<svg version="1.1" xmlns:xlink="http://www.w3.org/1999/xlink" width="12px" height="12px" viewBox="20 13.5  12 12" xmlns="http://www.w3.org/2000/svg">
  <path d="M 26 13.5  C 29.36 13.5  32 16.14  32 19.5  C 32 22.86  29.36 25.5  26 25.5  C 22.64 25.5  20 22.86  20 19.5  C 20 16.14  22.64 13.5  26 13.5  Z " fill-rule="nonzero" fill="#ffffff" stroke="none" />
  <path d="M 26 14  C 29.08 14  31.5 16.42  31.5 19.5  C 31.5 22.58  29.08 25  26 25  C 22.92 25  20.5 22.58  20.5 19.5  C 20.5 16.42  22.92 14  26 14  Z " stroke-width="1" stroke="#797979" fill="none" />
  <path d="M 26 22.5  C 24.32 22.5  23 21.18  23 19.5  C 23 17.82  24.32 16.5  26 16.5  C 27.68 16.5  29 17.82  29 19.5  C 29 21.18  27.68 22.5  26 22.5  " fill-rule="nonzero" fill="#797979" stroke="none" />
</svg>