<?xml version="1.0" encoding="utf-8"?>
<svg version="1.1" xmlns:xlink="http://www.w3.org/1999/xlink" width="12px" height="12px" viewBox="129 13.5  12 12" xmlns="http://www.w3.org/2000/svg">
  <path d="M 135 13.5  C 138.36 13.5  141 16.14  141 19.5  C 141 22.86  138.36 25.5  135 25.5  C 131.64 25.5  129 22.86  129 19.5  C 129 16.14  131.64 13.5  135 13.5  Z " fill-rule="nonzero" fill="#ffffff" stroke="none" />
  <path d="M 135 14  C 138.08 14  140.5 16.42  140.5 19.5  C 140.5 22.58  138.08 25  135 25  C 131.92 25  129.5 22.58  129.5 19.5  C 129.5 16.42  131.92 14  135 14  Z " stroke-width="1" stroke="#797979" fill="none" />
  <path d="M 135 22.5  C 133.32 22.5  132 21.18  132 19.5  C 132 17.82  133.32 16.5  135 16.5  C 136.68 16.5  138 17.82  138 19.5  C 138 21.18  136.68 22.5  135 22.5  " fill-rule="nonzero" fill="#797979" stroke="none" />
</svg>